<svg xmlns="http://www.w3.org/2000/svg" viewBox="0 0 100 100"><rect width="100" height="100" rx="14" fill="#234430"></rect><g transform="translate(50 54) scale(0.26) translate(-96 -80)"><polygon points="96,110 78,101 78,150 96,158" fill="#F2EEE6"></polygon><polygon points="96,110 114,101 114,150 96,158" fill="#D2CCC0"></polygon><polygon points="20,42 96,80 96,108 4,62" fill="#5A9670"></polygon><polygon points="96,80 172,42 188,62 96,108" fill="#3A7150"></polygon><polygon points="96,26 20,42 96,4" fill="#D9A521"></polygon><polygon points="96,26 96,4 172,42" fill="#E8C24E"></polygon><polygon points="96,26 20,42 96,80" fill="#7FB394"></polygon><polygon points="96,26 96,80 172,42" fill="#5A9670"></polygon></g></svg>